<?xml version="1.0" encoding="UTF-8" standalone="no"?>
<!DOCTYPE svg PUBLIC "-//W3C//DTD SVG 1.1//EN" "http://www.w3.org/Graphics/SVG/1.1/DTD/svg11.dtd">
<svg width="100%" height="100%" viewBox="0 0 355 355" version="1.1" xmlns="http://www.w3.org/2000/svg" xmlns:xlink="http://www.w3.org/1999/xlink" xml:space="preserve" xmlns:serif="http://www.serif.com/" style="fill-rule:evenodd;clip-rule:evenodd;stroke-linecap:round;stroke-linejoin:round;stroke-miterlimit:1.5;">
    <g transform="matrix(0.13547,0,0,0.13547,1.32293,-123.521)">
        <g>
            <g transform="matrix(1.113,0,0,1.18903,378.248,571.545)">
                <path d="M1265.66,769.777C1254.29,769.556 1243.11,768.417 1230.56,766.385C1215.22,763.903 1205.65,760.89 1205.62,760.869C1203.74,759.581 1201.4,758.535 1200.33,756.597C1200.28,756.503 1199.71,750.048 1199.75,750.005C1201.24,748.356 1202.21,746.077 1204.27,745.087C1208.11,743.236 1208.33,743.74 1212.51,744.826C1241.6,752.398 1279.29,752.37 1296.42,751.018C1316.1,749.466 1356.52,744.226 1400.64,736.047C1401.13,735.956 1405.72,735.106 1406.83,735.252C1413.95,736.176 1415.24,745.988 1407.48,747.983C1371.81,757.155 1301.57,774.407 1258.44,796.581C1213.23,819.819 1207.22,832.571 1199.34,846.219C1197.19,849.943 1196.24,854.833 1196.1,855.829C1195.72,858.69 1194.52,858.373 1193.38,864.042C1193.14,865.193 1190.77,871.441 1192.72,884.651C1194.47,896.47 1198.7,903.41 1197.83,904.193C1196.8,905.132 1188.26,899.938 1183.58,896.626C1159.69,879.688 1157.3,861.681 1156.57,856.364C1155.45,848.278 1160.02,835.036 1167.64,825.365C1185.49,802.701 1199.06,792.4 1265.66,769.777Z" style="fill:url(#_Linear1);"/>
            </g>
            <g transform="matrix(1.22338,0,0,1.22338,318.042,579.018)">
                <path d="M681.69,768.495C686.487,759.822 697.423,756.675 706.096,761.472C714.769,766.27 717.916,777.206 713.118,785.878L634.009,928.901C629.212,937.574 618.276,940.721 609.603,935.923C600.93,931.126 597.783,920.19 602.58,911.517L681.69,768.495Z" style="fill:url(#_Linear2);"/>
            </g>
            <g transform="matrix(1.22338,0,0,1.22338,318.042,579.018)">
                <path d="M524.689,998.852C532.671,992.976 543.921,994.687 549.797,1002.67C555.672,1010.65 553.962,1021.9 545.98,1027.78L424.105,1117.49C421.338,1119.52 418.044,1120.72 414.616,1120.94L197.975,1134.92L37.453,1272.46C29.927,1278.91 18.581,1278.04 12.132,1270.51C5.683,1262.99 6.558,1251.64 14.084,1245.19L179.155,1103.75C182.108,1101.22 185.802,1099.72 189.683,1099.47L407.052,1085.44L524.689,998.852Z" style="fill:url(#_Linear3);"/>
            </g>
            <g transform="matrix(1.42857,0,0,1.42857,47.5349,347.39)">
                <path d="M652.121,956.014L643.474,985.53L561.103,961.397C543.252,956.167 524.325,955.821 506.296,960.395L395.45,988.517L387.886,958.704L498.732,930.583C522.095,924.655 546.62,925.104 569.75,931.88L652.121,956.014Z" style="fill:url(#_Linear4);"/>
            </g>
            <g transform="matrix(0.0315562,-1.22297,-1.22297,-0.0315562,1789.52,2356.38)">
                <path d="M735.636,857.807L749.734,824.774L646.171,780.573C637.766,776.986 628.008,780.283 623.501,788.232L500.779,1004.64L532.021,1022.36L646.829,819.904L735.636,857.807Z" style="fill:url(#_Linear5);"/>
            </g>
            <g transform="matrix(0.0315562,-1.22297,-1.22297,-0.0315562,1789.52,2356.38)">
                <path d="M461.593,1098.47L425.844,1095.01L417.225,1184.06C416.712,1189.36 418.576,1194.61 422.314,1198.4L514.883,1292.24L540.452,1267.02L453.783,1179.16L461.593,1098.47Z" style="fill:url(#_Linear6);"/>
            </g>
            <g transform="matrix(1.22338,0,0,1.22338,309.879,584.439)">
                <path d="M612.134,1202.89L637.119,1228.69L442.568,1417.09L377.659,1697.43L342.669,1689.33L408.774,1403.82C409.554,1400.45 411.291,1397.38 413.776,1394.97L612.134,1202.89Z" style="fill:url(#_Linear7);"/>
            </g>
            <g transform="matrix(1.22338,0,0,1.22338,309.879,584.439)">
                <path d="M813.253,864.945L843.268,884.669L762.067,1008.24L704.475,1138.88L671.611,1124.4L729.806,992.387C730.207,991.477 730.684,990.601 731.23,989.769L813.253,864.945Z" style="fill:url(#_Linear8);"/>
            </g>
            <g transform="matrix(1.86902,0,0,1.85621,-174.918,-169.575)">
                <path d="M700.359,1223.15C697.48,1217.29 699.862,1210.19 705.676,1207.29C711.49,1204.39 718.547,1206.79 721.426,1212.64L739.022,1248.42C739.123,1248.62 739.219,1248.83 739.308,1249.04L761.694,1302.11C763.408,1306.17 762.735,1310.86 759.948,1314.26L650.527,1448.03C646.403,1453.07 638.989,1453.79 633.981,1449.64C628.974,1445.49 628.257,1438.02 632.381,1432.98C632.381,1432.98 737.268,1304.76 737.268,1304.76L717.803,1258.62L700.359,1223.15Z" style="fill:url(#_Linear9);"/>
            </g>
            <g transform="matrix(1.22338,0,0,1.22338,309.879,584.439)">
                <path d="M981.586,1139.83C987.396,1131.8 998.632,1130 1006.66,1135.81C1014.69,1141.62 1016.49,1152.86 1010.68,1160.89L889.361,1328.55C883.551,1336.58 872.315,1338.38 864.285,1332.57C856.256,1326.76 854.454,1315.52 860.265,1307.49L981.586,1139.83Z" style="fill:url(#_Linear10);"/>
            </g>
            <g transform="matrix(1.22338,0,0,1.22338,338.464,1379.37)">
                <path d="M878.489,1283.09C905.532,1246.63 913.218,1234.74 964.953,1163.12C978.31,1144.63 1001.43,1112.64 1001.43,1112.64C1005.32,1110.26 1008.6,1106.23 1013.1,1105.51C1013.2,1105.49 1026.49,1108.65 1026.52,1108.7C1028.91,1112.58 1032.93,1115.87 1033.66,1120.37C1034.38,1124.87 1032.57,1129.61 1030.54,1133.69C1030.42,1133.92 964.527,1224.81 950.274,1245.07C920.198,1287.83 889.249,1328.71 889.142,1328.84C878.901,1341.12 863.223,1335.95 858.432,1325.38C855.671,1319.28 824.164,1249.73 824.145,1249.07C824.017,1244.51 822.164,1239.65 823.784,1235.39C823.82,1235.3 833.191,1225.36 833.245,1225.36C837.803,1225.22 842.658,1223.37 846.921,1224.99C851.184,1226.61 854.812,1230.3 856.906,1234.35C865.063,1250.13 871.546,1266.72 878.489,1283.09Z" style="fill:url(#_Linear11);"/>
            </g>
            <g transform="matrix(-1.22336,0.00750134,-0.00750134,-1.22336,2363.24,4329.8)">
                <path d="M887.933,1296.95C945.653,1227.67 1000.62,1156.09 1059.08,1087.41C1062.42,1083.5 1067.59,1080.67 1072.71,1080.17C1072.81,1080.16 1087.57,1084.62 1087.6,1084.67C1090.03,1089.21 1094.33,1093.18 1094.84,1098.3C1095.35,1103.42 1093.6,1109.05 1090.42,1113.09C1027.97,1192.29 962.649,1269.17 898.657,1347.12C889.315,1358.49 870.9,1356.22 864.632,1342.84C839.333,1288.81 814.125,1234.74 788.988,1180.64C785.793,1173.77 786.839,1165.1 791.759,1159.14C816.157,1129.61 840.686,1100.19 865.15,1070.71C875.026,1058.81 878.278,1069.49 893.672,1068.06L896.095,1065.24L831.124,1175.14L887.933,1296.95Z" style="fill:url(#_Linear12);"/>
            </g>
            <g transform="matrix(1.22338,0,0,1.22338,309.879,584.439)">
                <path d="M858.4,1326.89C853.506,1318.27 856.53,1307.3 865.148,1302.4C873.767,1297.51 884.737,1300.53 889.631,1309.15L956.356,1426.65C960.253,1433.51 959.213,1442.12 953.791,1447.85L852.69,1554.82C845.882,1562.03 834.507,1562.35 827.304,1555.54C820.101,1548.73 819.78,1537.36 826.588,1530.15L918.566,1432.84L858.4,1326.89Z" style="fill:url(#_Linear13);"/>
            </g>
            <g transform="matrix(2.84109,0,0,2.79581,659.473,-1315.39)">
                <path d="M371.066,919.937C393.457,919.937 411.636,937.544 411.636,959.231C411.636,980.918 393.457,998.525 371.066,998.525C348.675,998.525 330.497,980.918 330.497,959.231C330.497,937.544 348.675,919.937 371.066,919.937ZM371.066,939.584C382.262,939.584 391.351,948.387 391.351,959.231C391.351,970.074 382.262,978.878 371.066,978.878C359.871,978.878 350.781,970.074 350.781,959.231C350.781,948.387 359.871,939.584 371.066,939.584Z" style="fill:none;stroke:url(#_Linear14);stroke-width:2.62px;"/>
            </g>
            <g transform="matrix(1.22338,0,0,1.22338,309.879,584.439)">
                <path d="M408.708,1099.01C410.781,1089.32 420.332,1083.13 430.024,1085.2C439.716,1087.28 445.902,1096.83 443.83,1106.52C429.472,1173.66 414.832,1233.4 400.474,1262.37C399.674,1263.99 398.634,1265.47 397.39,1266.78L295.234,1374.07C288.4,1381.25 277.023,1381.53 269.845,1374.69C262.668,1367.86 262.389,1356.48 269.223,1349.3C269.223,1349.3 369.431,1244.06 369.438,1244.04C382.607,1215.86 395.524,1160.66 408.708,1099.01Z" style="fill:url(#_Linear15);"/>
            </g>
            <g transform="matrix(1.42857,0,0,1.42857,440.03,419.834)">
                <path d="M-116.443,661.045L-123.918,656.611L-127.788,660.409C-127.128,652.121 -128.449,643.754 -127.788,635.466C-127.779,635.344 -124.636,632.559 -121.403,631.35C-112.877,628.162 -107.035,632.382 -57.517,641.126C-18.958,647.935 -4.005,649.059 30.117,653.787C184.802,675.217 306.112,673.298 324.224,674.034C376.504,676.158 477.209,689.827 591.087,785.292C664.232,846.61 712.155,917.717 733.61,951.145C733.617,951.156 748.526,977.297 765.308,1014.31C822.342,1140.08 840.853,1253.71 849.145,1317.17C868.965,1468.84 849.933,1585.39 831.384,1654.27C828.058,1666.62 815.046,1703.14 800.538,1758C795.485,1777.11 751.212,1904.54 767.362,1995.8C770.028,2010.86 773.451,2024.53 783.349,2045.62C787.724,2054.94 792.661,2063.92 797.96,2072.4C795.795,2037.4 794.524,2004.72 794.877,1972.63C795.101,1952.3 795.028,1927.03 808.908,1879.52C843.023,1762.73 903.746,1717.4 908.586,1713.29C985.522,1647.99 1060.21,1597.35 1123.73,1542.7C1124.21,1542.29 1154.83,1514.59 1182.88,1479.83C1232.07,1418.9 1244.04,1373.87 1252.84,1355.8C1315.09,1227.86 1317,1130.07 1318.24,1091.2C1323.69,920.819 1247.52,788.643 1200.61,720.789C1191.31,707.334 1186.72,696.501 1147.94,647.855C1139.38,637.111 1131.58,628.746 1134.33,616.173C1134.46,615.567 1135.14,612.469 1137.2,608.969C1227.91,454.741 1238.16,436.127 1246.05,423.845C1218.94,438.759 1181.1,460.312 1130,490.947C1089.08,515.481 1089.41,516.02 1066.96,528.771C1064.21,530.335 1061.51,531.985 1058.7,533.456C1056.71,534.502 1044.14,541.107 1030.6,533.06C1027.46,531.197 1002.43,509.023 960.999,489.15C832.386,427.456 756.426,487.187 733.165,506.794C707.916,528.078 685.797,553.257 675.192,591.761C657.92,654.47 682.107,716.818 696.009,736.488C706.386,751.17 765.678,835.062 817.1,925.816C828.996,946.812 835.758,960.013 845.594,980.168C851.685,992.649 863.087,1020.17 864.54,1023.67C901.004,1111.68 926.552,1201.02 925.211,1279.74C925.129,1284.54 924.549,1318.58 916.343,1339.19C913.552,1346.2 913.352,1346.61 906.36,1349.42C906.28,1349.46 892.842,1349.32 892.81,1349.29C889.693,1346.09 885.155,1343.82 883.489,1339.68C881.397,1334.48 882.772,1328.74 883.352,1326.77C883.322,1326.74 883.364,1326.58 883.463,1326.27C883.465,1326.26 883.466,1326.26 883.468,1326.26C884.284,1323.71 888.828,1311.43 889.296,1283.4C889.799,1253.24 884.196,1164.44 810.18,1022.16C803.674,1009.65 803.501,1009.77 797.019,997.255C789.382,982.506 761.047,927.783 686.846,821.299C649.694,767.984 645.366,767.195 633.384,742C605.985,684.387 580.7,563.755 676.692,469.437C677.064,469.072 691.075,455.709 711.034,442.338C840.438,355.648 978.523,422.358 1048.05,475.1C1049.13,474.509 1050.22,473.925 1051.32,473.357C1058.05,469.867 1058.13,470.029 1136.21,431.182C1136.87,430.856 1266.57,365.552 1286.04,358.041C1304.47,350.933 1319.58,369.485 1310.9,385.411C1269.11,462.054 1227.17,538.616 1185.37,615.253C1200.48,630.836 1221.87,652.695 1247.44,683.419C1247.78,683.819 1274.73,717.555 1302.76,764.859C1387.61,908.019 1400.28,1032.7 1401.28,1102.87C1401.58,1123.98 1398.98,1152.01 1398.59,1156.27C1388.97,1260.09 1355.82,1343.89 1331.22,1396.41C1330.84,1397.22 1315.19,1425.37 1298.24,1449.57C1245.34,1525.1 1181.39,1570.63 1158.64,1589.61C1095.47,1642.3 1001.07,1706.93 939.467,1759.36C879.96,1809.99 851.133,1910.49 848.186,1951.16C847.527,1960.26 846.235,1978.08 848.125,2065.11C848.817,2096.96 850.028,2127.02 850.63,2140.18C850.665,2140.96 850.906,2146.22 849.905,2149.84C845.613,2165.35 825.396,2174.12 810.374,2160.61C784.348,2137.19 764.983,2105.06 761.765,2099.72C745.963,2073.51 737.161,2050.87 728.5,2022.64C716.681,1984.12 702.581,1914.39 735.963,1747.38C737.221,1741.08 744.968,1710.25 759.578,1662.62C763.005,1651.44 769.88,1632.37 777.383,1591.4C809.419,1416.46 768.384,1259.69 766.146,1250.27C730.143,1098.79 668.984,1005.09 662.278,993.039C654.147,978.432 606.295,878.653 513.869,804.693C464.77,765.404 415.109,747.676 405.783,744.347C351.681,725.033 309.34,725.718 280.306,724.118C199.171,719.645 113.265,710.775 16.175,694.05C-7.192,690.025 -107.08,667.562 -116.874,665.486L-116.443,661.045ZM-110.494,655.465L-108.701,658.312L-110.231,652.951L-110.494,655.465Z" style="fill:url(#_Linear16);"/>
            </g>
            <g transform="matrix(8.26167,0,0,8.96657,-949.165,1421.57)">
                <path d="M263.511,124.276C263.567,128.575 267.53,131.796 271.987,131.767C276.684,131.737 280.374,128.176 280.489,124.276C280.587,120.919 276.999,116.651 271.987,116.682C266.775,116.715 263.461,120.462 263.511,124.276Z" style="fill:none;stroke:url(#_Linear17);stroke-width:4.99px;"/>
            </g>
            <g transform="matrix(8.26167,0,0,8.96657,-1256.98,1939.88)">
                <path d="M263.511,124.276C263.567,128.575 267.53,131.796 271.987,131.767C276.684,131.737 280.374,128.176 280.489,124.276C280.587,120.919 276.999,116.651 271.987,116.682C266.775,116.715 263.461,120.462 263.511,124.276Z" style="fill:none;stroke:url(#_Linear18);stroke-width:4.99px;"/>
            </g>
            <g transform="matrix(8.26167,0,0,8.96657,-1019.31,1971.72)">
                <path d="M263.511,124.276C263.567,128.575 267.53,131.796 271.987,131.767C276.684,131.737 280.374,128.176 280.489,124.276C280.587,120.919 276.999,116.651 271.987,116.682C266.775,116.715 263.461,120.462 263.511,124.276Z" style="fill:none;stroke:url(#_Linear19);stroke-width:4.99px;"/>
            </g>
            <g transform="matrix(8.26167,0,0,8.96657,-1510.75,1610.23)">
                <path d="M263.511,124.276C263.567,128.575 267.53,131.796 271.987,131.767C276.684,131.737 280.374,128.176 280.489,124.276C280.587,120.919 276.999,116.651 271.987,116.682C266.775,116.715 263.461,120.462 263.511,124.276Z" style="fill:none;stroke:url(#_Linear20);stroke-width:4.99px;"/>
            </g>
            <g transform="matrix(10.0899,0,0,10.8079,-1030.63,23.275)">
                <path d="M263.511,124.276C263.518,129.045 267.495,131.665 271.987,131.767C277.179,131.885 280.524,127.898 280.489,124.276C280.456,120.918 277.661,116.633 271.987,116.682C266.255,116.731 263.506,120.579 263.511,124.276Z" style="fill:none;stroke:url(#_Linear21);stroke-width:5.88px;"/>
            </g>
            <g transform="matrix(8.26167,0,0,8.96657,-1714.8,624.439)">
                <path d="M263.511,124.276C263.567,128.575 267.53,131.796 271.987,131.767C276.684,131.737 280.374,128.176 280.489,124.276C280.587,120.919 276.999,116.651 271.987,116.682C266.775,116.715 263.461,120.462 263.511,124.276Z" style="fill:none;stroke:url(#_Linear22);stroke-width:4.99px;"/>
            </g>
            <g transform="matrix(8.26167,0,0,8.96657,-2053.39,212.051)">
                <path d="M263.511,124.276C263.567,128.575 267.53,131.796 271.987,131.767C276.684,131.737 280.374,128.176 280.489,124.276C280.587,120.919 276.999,116.651 271.987,116.682C266.775,116.715 263.461,120.462 263.511,124.276Z" style="fill:none;stroke:url(#_Linear23);stroke-width:4.99px;"/>
            </g>
            <g transform="matrix(8.26167,0,0,8.96657,-1965.6,1064.01)">
                <path d="M263.511,124.276C263.567,128.575 267.53,131.796 271.987,131.767C276.684,131.737 280.374,128.176 280.489,124.276C280.587,120.919 276.999,116.651 271.987,116.682C266.775,116.715 263.461,120.462 263.511,124.276Z" style="fill:none;stroke:url(#_Linear24);stroke-width:4.99px;"/>
            </g>
            <g transform="matrix(8.26167,0,0,8.96657,-1205.76,650.074)">
                <path d="M263.511,124.276C263.567,128.575 267.53,131.796 271.987,131.767C276.684,131.737 280.374,128.176 280.489,124.276C280.587,120.919 276.999,116.651 271.987,116.682C266.775,116.715 263.461,120.462 263.511,124.276Z" style="fill:none;stroke:url(#_Linear25);stroke-width:4.99px;"/>
            </g>
            <g transform="matrix(8.26167,0,0,8.96657,-1116.69,900.899)">
                <path d="M263.511,124.276C263.567,128.575 267.53,131.796 271.987,131.767C276.684,131.737 280.374,128.176 280.489,124.276C280.587,120.919 276.999,116.651 271.987,116.682C266.775,116.715 263.461,120.462 263.511,124.276Z" style="fill:none;stroke:url(#_Linear26);stroke-width:4.99px;"/>
            </g>
            <g transform="matrix(8.26167,0,0,8.96657,-2076.11,514.81)">
                <path d="M263.511,124.276C263.567,128.575 267.53,131.796 271.987,131.767C276.684,131.737 280.374,128.176 280.489,124.276C280.587,120.919 276.999,116.651 271.987,116.682C266.775,116.715 263.461,120.462 263.511,124.276Z" style="fill:none;stroke:url(#_Linear27);stroke-width:4.99px;"/>
            </g>
            <g transform="matrix(8.26167,0,0,8.96657,-1651.04,1199.27)">
                <path d="M263.511,124.276C263.567,128.575 267.53,131.796 271.987,131.767C276.684,131.737 280.374,128.176 280.489,124.276C280.587,120.919 276.999,116.651 271.987,116.682C266.775,116.715 263.461,120.462 263.511,124.276Z" style="fill:none;stroke:url(#_Linear28);stroke-width:4.99px;"/>
            </g>
            <g transform="matrix(8.26167,0,0,8.96657,-1275.9,1455.44)">
                <path d="M263.511,124.276C263.567,128.575 267.53,131.796 271.987,131.767C276.684,131.737 280.374,128.176 280.489,124.276C280.587,120.919 276.999,116.651 271.987,116.682C266.775,116.715 263.461,120.462 263.511,124.276Z" style="fill:none;stroke:url(#_Linear29);stroke-width:4.99px;"/>
            </g>
        </g>
    </g>
    <defs>
        <linearGradient id="_Linear1" x1="0" y1="0" x2="1" y2="0" gradientUnits="userSpaceOnUse" gradientTransform="matrix(1481.58,-1509.1,1612.2,1386.83,85.4302,1977.6)"><stop offset="0" style="stop-color:rgb(90,225,146);stop-opacity:1"/><stop offset="0.51" style="stop-color:rgb(42,116,136);stop-opacity:1"/><stop offset="1" style="stop-color:rgb(25,78,133);stop-opacity:1"/></linearGradient>
        <linearGradient id="_Linear2" x1="0" y1="0" x2="1" y2="0" gradientUnits="userSpaceOnUse" gradientTransform="matrix(1347.9,-1466.74,1466.74,1347.9,126.935,1915.97)"><stop offset="0" style="stop-color:rgb(90,225,146);stop-opacity:1"/><stop offset="0.51" style="stop-color:rgb(42,116,136);stop-opacity:1"/><stop offset="1" style="stop-color:rgb(25,78,133);stop-opacity:1"/></linearGradient>
        <linearGradient id="_Linear3" x1="0" y1="0" x2="1" y2="0" gradientUnits="userSpaceOnUse" gradientTransform="matrix(1347.9,-1466.74,1466.74,1347.9,126.935,1915.97)"><stop offset="0" style="stop-color:rgb(90,225,146);stop-opacity:1"/><stop offset="0.51" style="stop-color:rgb(42,116,136);stop-opacity:1"/><stop offset="1" style="stop-color:rgb(25,78,133);stop-opacity:1"/></linearGradient>
        <linearGradient id="_Linear4" x1="0" y1="0" x2="1" y2="0" gradientUnits="userSpaceOnUse" gradientTransform="matrix(1154.3,-1256.06,1256.06,1154.3,298.058,1802.92)"><stop offset="0" style="stop-color:rgb(90,225,146);stop-opacity:1"/><stop offset="0.51" style="stop-color:rgb(42,116,136);stop-opacity:1"/><stop offset="1" style="stop-color:rgb(25,78,133);stop-opacity:1"/></linearGradient>
        <linearGradient id="_Linear5" x1="0" y1="0" x2="1" y2="0" gradientUnits="userSpaceOnUse" gradientTransform="matrix(1501.02,-1309.62,-1309.62,-1501.02,-490.744,1063.55)"><stop offset="0" style="stop-color:rgb(90,225,146);stop-opacity:1"/><stop offset="0.51" style="stop-color:rgb(42,116,136);stop-opacity:1"/><stop offset="1" style="stop-color:rgb(25,78,133);stop-opacity:1"/></linearGradient>
        <linearGradient id="_Linear6" x1="0" y1="0" x2="1" y2="0" gradientUnits="userSpaceOnUse" gradientTransform="matrix(1501.02,-1309.62,-1309.62,-1501.02,-490.744,1063.55)"><stop offset="0" style="stop-color:rgb(90,225,146);stop-opacity:1"/><stop offset="0.51" style="stop-color:rgb(42,116,136);stop-opacity:1"/><stop offset="1" style="stop-color:rgb(25,78,133);stop-opacity:1"/></linearGradient>
        <linearGradient id="_Linear7" x1="0" y1="0" x2="1" y2="0" gradientUnits="userSpaceOnUse" gradientTransform="matrix(1347.9,-1466.74,1466.74,1347.9,133.608,1911.54)"><stop offset="0" style="stop-color:rgb(90,225,146);stop-opacity:1"/><stop offset="0.51" style="stop-color:rgb(42,116,136);stop-opacity:1"/><stop offset="1" style="stop-color:rgb(25,78,133);stop-opacity:1"/></linearGradient>
        <linearGradient id="_Linear8" x1="0" y1="0" x2="1" y2="0" gradientUnits="userSpaceOnUse" gradientTransform="matrix(1347.9,-1466.74,1466.74,1347.9,133.608,1911.54)"><stop offset="0" style="stop-color:rgb(90,225,146);stop-opacity:1"/><stop offset="0.51" style="stop-color:rgb(42,116,136);stop-opacity:1"/><stop offset="1" style="stop-color:rgb(25,78,133);stop-opacity:1"/></linearGradient>
        <linearGradient id="_Linear9" x1="0" y1="0" x2="1" y2="0" gradientUnits="userSpaceOnUse" gradientTransform="matrix(882.276,-966.688,960.062,888.366,346.839,1666.06)"><stop offset="0" style="stop-color:rgb(90,225,146);stop-opacity:1"/><stop offset="0.51" style="stop-color:rgb(42,116,136);stop-opacity:1"/><stop offset="1" style="stop-color:rgb(25,78,133);stop-opacity:1"/></linearGradient>
        <linearGradient id="_Linear10" x1="0" y1="0" x2="1" y2="0" gradientUnits="userSpaceOnUse" gradientTransform="matrix(1347.9,-1466.74,1466.74,1347.9,133.608,1911.54)"><stop offset="0" style="stop-color:rgb(90,225,146);stop-opacity:1"/><stop offset="0.51" style="stop-color:rgb(42,116,136);stop-opacity:1"/><stop offset="1" style="stop-color:rgb(25,78,133);stop-opacity:1"/></linearGradient>
        <linearGradient id="_Linear11" x1="0" y1="0" x2="1" y2="0" gradientUnits="userSpaceOnUse" gradientTransform="matrix(1347.9,-1466.74,1466.74,1347.9,110.242,1261.76)"><stop offset="0" style="stop-color:rgb(90,225,146);stop-opacity:1"/><stop offset="0.51" style="stop-color:rgb(42,116,136);stop-opacity:1"/><stop offset="1" style="stop-color:rgb(25,78,133);stop-opacity:1"/></linearGradient>
        <linearGradient id="_Linear12" x1="0" y1="0" x2="1" y2="0" gradientUnits="userSpaceOnUse" gradientTransform="matrix(-1356.87,1458.44,-1458.44,-1356.87,1537.74,1159.4)"><stop offset="0" style="stop-color:rgb(90,225,146);stop-opacity:1"/><stop offset="0.51" style="stop-color:rgb(42,116,136);stop-opacity:1"/><stop offset="1" style="stop-color:rgb(25,78,133);stop-opacity:1"/></linearGradient>
        <linearGradient id="_Linear13" x1="0" y1="0" x2="1" y2="0" gradientUnits="userSpaceOnUse" gradientTransform="matrix(1347.9,-1466.74,1466.74,1347.9,133.608,1911.54)"><stop offset="0" style="stop-color:rgb(90,225,146);stop-opacity:1"/><stop offset="0.51" style="stop-color:rgb(42,116,136);stop-opacity:1"/><stop offset="1" style="stop-color:rgb(25,78,133);stop-opacity:1"/></linearGradient>
        <linearGradient id="_Linear14" x1="0" y1="0" x2="1" y2="0" gradientUnits="userSpaceOnUse" gradientTransform="matrix(580.409,-641.81,631.581,589.81,-65.5175,1515.97)"><stop offset="0" style="stop-color:rgb(90,225,146);stop-opacity:1"/><stop offset="0.51" style="stop-color:rgb(42,116,136);stop-opacity:1"/><stop offset="1" style="stop-color:rgb(25,78,133);stop-opacity:1"/></linearGradient>
        <linearGradient id="_Linear15" x1="0" y1="0" x2="1" y2="0" gradientUnits="userSpaceOnUse" gradientTransform="matrix(1347.9,-1466.74,1466.74,1347.9,133.608,1911.54)"><stop offset="0" style="stop-color:rgb(90,225,146);stop-opacity:1"/><stop offset="0.51" style="stop-color:rgb(42,116,136);stop-opacity:1"/><stop offset="1" style="stop-color:rgb(25,78,133);stop-opacity:1"/></linearGradient>
        <linearGradient id="_Linear16" x1="0" y1="0" x2="1" y2="0" gradientUnits="userSpaceOnUse" gradientTransform="matrix(1154.3,-1256.06,1256.06,1154.3,23.3116,1752.2)"><stop offset="0" style="stop-color:rgb(90,225,146);stop-opacity:1"/><stop offset="0.51" style="stop-color:rgb(42,116,136);stop-opacity:1"/><stop offset="1" style="stop-color:rgb(25,78,133);stop-opacity:1"/></linearGradient>
        <linearGradient id="_Linear17" x1="0" y1="0" x2="1" y2="0" gradientUnits="userSpaceOnUse" gradientTransform="matrix(199.596,-200.119,217.193,183.905,172.18,167.446)"><stop offset="0" style="stop-color:rgb(90,225,146);stop-opacity:1"/><stop offset="0.51" style="stop-color:rgb(42,116,136);stop-opacity:1"/><stop offset="1" style="stop-color:rgb(25,78,133);stop-opacity:1"/></linearGradient>
        <linearGradient id="_Linear18" x1="0" y1="0" x2="1" y2="0" gradientUnits="userSpaceOnUse" gradientTransform="matrix(199.596,-200.119,217.193,183.905,209.438,109.641)"><stop offset="0" style="stop-color:rgb(90,225,146);stop-opacity:1"/><stop offset="0.51" style="stop-color:rgb(42,116,136);stop-opacity:1"/><stop offset="1" style="stop-color:rgb(25,78,133);stop-opacity:1"/></linearGradient>
        <linearGradient id="_Linear19" x1="0" y1="0" x2="1" y2="0" gradientUnits="userSpaceOnUse" gradientTransform="matrix(199.596,-200.119,217.193,183.905,180.671,106.09)"><stop offset="0" style="stop-color:rgb(90,225,146);stop-opacity:1"/><stop offset="0.51" style="stop-color:rgb(42,116,136);stop-opacity:1"/><stop offset="1" style="stop-color:rgb(25,78,133);stop-opacity:1"/></linearGradient>
        <linearGradient id="_Linear20" x1="0" y1="0" x2="1" y2="0" gradientUnits="userSpaceOnUse" gradientTransform="matrix(199.596,-200.119,217.193,183.905,240.155,146.405)"><stop offset="0" style="stop-color:rgb(90,225,146);stop-opacity:1"/><stop offset="0.51" style="stop-color:rgb(42,116,136);stop-opacity:1"/><stop offset="1" style="stop-color:rgb(25,78,133);stop-opacity:1"/></linearGradient>
        <linearGradient id="_Linear21" x1="0" y1="0" x2="1" y2="0" gradientUnits="userSpaceOnUse" gradientTransform="matrix(163.43,-166.024,177.838,152.573,149.055,268.295)"><stop offset="0" style="stop-color:rgb(90,225,146);stop-opacity:1"/><stop offset="0.51" style="stop-color:rgb(42,116,136);stop-opacity:1"/><stop offset="1" style="stop-color:rgb(25,78,133);stop-opacity:1"/></linearGradient>
        <linearGradient id="_Linear22" x1="0" y1="0" x2="1" y2="0" gradientUnits="userSpaceOnUse" gradientTransform="matrix(199.596,-200.119,217.193,183.905,264.854,256.346)"><stop offset="0" style="stop-color:rgb(90,225,146);stop-opacity:1"/><stop offset="0.51" style="stop-color:rgb(42,116,136);stop-opacity:1"/><stop offset="1" style="stop-color:rgb(25,78,133);stop-opacity:1"/></linearGradient>
        <linearGradient id="_Linear23" x1="0" y1="0" x2="1" y2="0" gradientUnits="userSpaceOnUse" gradientTransform="matrix(199.596,-200.119,217.193,183.905,305.837,302.338)"><stop offset="0" style="stop-color:rgb(90,225,146);stop-opacity:1"/><stop offset="0.51" style="stop-color:rgb(42,116,136);stop-opacity:1"/><stop offset="1" style="stop-color:rgb(25,78,133);stop-opacity:1"/></linearGradient>
        <linearGradient id="_Linear24" x1="0" y1="0" x2="1" y2="0" gradientUnits="userSpaceOnUse" gradientTransform="matrix(199.596,-200.119,217.193,183.905,295.211,207.323)"><stop offset="0" style="stop-color:rgb(90,225,146);stop-opacity:1"/><stop offset="0.51" style="stop-color:rgb(42,116,136);stop-opacity:1"/><stop offset="1" style="stop-color:rgb(25,78,133);stop-opacity:1"/></linearGradient>
        <linearGradient id="_Linear25" x1="0" y1="0" x2="1" y2="0" gradientUnits="userSpaceOnUse" gradientTransform="matrix(199.596,-200.119,217.193,183.905,203.239,253.487)"><stop offset="0" style="stop-color:rgb(90,225,146);stop-opacity:1"/><stop offset="0.51" style="stop-color:rgb(42,116,136);stop-opacity:1"/><stop offset="1" style="stop-color:rgb(25,78,133);stop-opacity:1"/></linearGradient>
        <linearGradient id="_Linear26" x1="0" y1="0" x2="1" y2="0" gradientUnits="userSpaceOnUse" gradientTransform="matrix(199.596,-200.119,217.193,183.905,192.458,225.514)"><stop offset="0" style="stop-color:rgb(90,225,146);stop-opacity:1"/><stop offset="0.51" style="stop-color:rgb(42,116,136);stop-opacity:1"/><stop offset="1" style="stop-color:rgb(25,78,133);stop-opacity:1"/></linearGradient>
        <linearGradient id="_Linear27" x1="0" y1="0" x2="1" y2="0" gradientUnits="userSpaceOnUse" gradientTransform="matrix(199.596,-200.119,217.193,183.905,308.587,268.572)"><stop offset="0" style="stop-color:rgb(90,225,146);stop-opacity:1"/><stop offset="0.51" style="stop-color:rgb(42,116,136);stop-opacity:1"/><stop offset="1" style="stop-color:rgb(25,78,133);stop-opacity:1"/></linearGradient>
        <linearGradient id="_Linear28" x1="0" y1="0" x2="1" y2="0" gradientUnits="userSpaceOnUse" gradientTransform="matrix(199.596,-200.119,217.193,183.905,257.135,192.238)"><stop offset="0" style="stop-color:rgb(90,225,146);stop-opacity:1"/><stop offset="0.51" style="stop-color:rgb(42,116,136);stop-opacity:1"/><stop offset="1" style="stop-color:rgb(25,78,133);stop-opacity:1"/></linearGradient>
        <linearGradient id="_Linear29" x1="0" y1="0" x2="1" y2="0" gradientUnits="userSpaceOnUse" gradientTransform="matrix(199.596,-200.119,217.193,183.905,211.729,163.668)"><stop offset="0" style="stop-color:rgb(90,225,146);stop-opacity:1"/><stop offset="0.51" style="stop-color:rgb(42,116,136);stop-opacity:1"/><stop offset="1" style="stop-color:rgb(25,78,133);stop-opacity:1"/></linearGradient>
    </defs>
</svg>
